<svg id="Layer_1" data-name="Layer 1" xmlns="http://www.w3.org/2000/svg" viewBox="0 0 24.7 31"><defs><style>.cls-1{fill:#143b26;}.cls-2{fill:#ffd12e;}.cls-3{fill:#597e5b;}.cls-4{fill:#f9b307;}</style></defs><g id="Layer_2" data-name="Layer 2"><g id="Layer_1-2" data-name="Layer 1-2"><path class="cls-1" d="M49.87,24.76a4.37,4.37,0,0,1-4.4-4.4V5.56a4.37,4.37,0,0,1,4.4-4.4,4.44,4.44,0,0,1,4.4,4.4v14.8a4.37,4.37,0,0,1-4.4,4.4Z" transform="translate(-42.67 -1.16)"/><path class="cls-2" d="M61.17,24.76a4.82,4.82,0,0,1-3.2-1.3l-7.4-7.4a4.45,4.45,0,0,1,6.3-6.3l7.4,7.4a4.53,4.53,0,0,1,0,6.3A4.39,4.39,0,0,1,61.17,24.76Z" transform="translate(-42.67 -1.16)"/><path class="cls-2" d="M53.77,17.36a4.38,4.38,0,0,1-3.1-7.5l7.4-7.4a4.53,4.53,0,0,1,6.3,0,4.53,4.53,0,0,1,0,6.3L57,16.16A5.26,5.26,0,0,1,53.77,17.36Z" transform="translate(-42.67 -1.16)"/><path class="cls-3" d="M49.87,13.66a4.4,4.4,0,0,1-4.5-4.4,4.63,4.63,0,0,1,1.3-3.2h0a4.53,4.53,0,0,1,6.3,0,4.53,4.53,0,0,1,0,6.3h0A4,4,0,0,1,49.87,13.66Z" transform="translate(-42.67 -1.16)"/><path class="cls-4" d="M56.77,20.36a4.82,4.82,0,0,1-3.2-1.3,4.44,4.44,0,0,1,0-6.3h0a4.45,4.45,0,0,1,6.3,6.3h0A4.57,4.57,0,0,1,56.77,20.36Z" transform="translate(-42.67 -1.16)"/><path class="cls-3" d="M46.07,28.06h0v2.3c0,.7-.4,1-1.3,1.1s-1.3-.4-1.3-1.1v-2.3h-.8v2.4c0,1.1.7,1.6,2,1.6h0c1.3,0,2-.6,2-1.6v-2.4Z" transform="translate(-42.67 -1.16)"/><path class="cls-3" d="M44.77,28a.43.43,0,0,0,.4-.4h0a.43.43,0,0,0-.4-.4h0a.43.43,0,0,0-.4.4C44.37,27.86,44.47,28,44.77,28Z" transform="translate(-42.67 -1.16)"/><path class="cls-3" d="M67.37,29.16a1.71,1.71,0,0,0-.7-1.3,2.35,2.35,0,0,0-1.3-.5h-.3l1.7-1.7h-.9l-2.6,2.5.5.5a1.61,1.61,0,0,1,1.3-.6,1.16,1.16,0,0,1,1,.4,2,2,0,0,1,.4.8v.8h-7a.82.82,0,0,1-.9-.8,1.78,1.78,0,0,0-.4-1,1.5,1.5,0,0,0-1.1-.4,1.54,1.54,0,0,0-1.6,1.4.71.71,0,0,1-.8.7h-4.2v-.9q0-1.8-1.5-1.8a1.43,1.43,0,0,0-1.2.6,1.8,1.8,0,0,0-.3,1.2,1.5,1.5,0,0,0,.4,1.1,1.68,1.68,0,0,0,1.21.5h.59a.87.87,0,0,1-.9.8,2.77,2.77,0,0,1-.9-.1V32a2.92,2.92,0,0,0,.9.2,1.5,1.5,0,0,0,1.1-.4,1.91,1.91,0,0,0,.5-1h4.3a1.28,1.28,0,0,0,1-.4,1.35,1.35,0,0,0,1.5.9,1.54,1.54,0,0,0,1.5-1,1.23,1.23,0,0,0,1,.5h7.7Zm-17.6.9h-.7a.8.8,0,0,1-.9-.9c0-.6.3-1.2.8-1.2a.55.55,0,0,1,.6.4,2.2,2.2,0,0,1,.1.8Zm7.4.5c-.5,0-.8-.3-.8-1s.3-1,.8-1,.8.3.8,1-.3,1-.8,1Z" transform="translate(-42.67 -1.16)"/><path class="cls-3" d="M56.77,27.36a.37.37,0,0,0,.3-.1l.1-.1.3.3a.37.37,0,0,0,.4-.4v-.6h-.3V27c0,.1,0,.1-.1.1s-.1-.1-.1-.2v-.4h-.3v.4c0,.1,0,.2-.1.2s-.1,0-.1-.1v-.5h-.3v.6C56.47,27.26,56.57,27.36,56.77,27.36Z" transform="translate(-42.67 -1.16)"/></g></g></svg>